<?xml version="1.0" encoding="UTF-8" standalone="no"?>
<!DOCTYPE svg PUBLIC "-//W3C//DTD SVG 1.1//EN"
 "http://www.w3.org/Graphics/SVG/1.1/DTD/svg11.dtd">
<!-- Generated by graphviz version 2.47.0 (20210316.0004)
 -->
<!-- Title: dependencies Pages: 1 -->
<svg width="744pt" height="211pt"
 viewBox="0.00 0.00 744.00 211.00" xmlns="http://www.w3.org/2000/svg" xmlns:xlink="http://www.w3.org/1999/xlink">
<g id="graph0" class="graph" transform="scale(1 1) rotate(0) translate(4 207)">
<title>dependencies</title>
<polygon fill="white" stroke="transparent" points="-4,4 -4,-207 740,-207 740,4 -4,4"/>
<text text-anchor="start" x="347.01" y="-42.4" font-family="Times-12" font-weight="bold" font-size="14.00">Legend</text>
<polygon fill="#ffffb3" stroke="transparent" points="134,-10 134,-30 154,-30 154,-10 134,-10"/>
<text text-anchor="start" x="157.63" y="-15.4" font-family="Times-12" font-size="14.00"> &#160;Declarations</text>
<polygon fill="#8dd3c7" stroke="transparent" points="247,-10 247,-30 267,-30 267,-10 247,-10"/>
<text text-anchor="start" x="270.73" y="-15.4" font-family="Times-12" font-size="14.00"> &#160;Module</text>
<polygon fill="#80b1d3" stroke="transparent" points="333,-10 333,-30 353,-30 353,-10 333,-10"/>
<text text-anchor="start" x="356.78" y="-15.4" font-family="Times-12" font-size="14.00"> &#160;Bootstrap</text>
<polygon fill="#fdb462" stroke="transparent" points="430,-10 430,-30 450,-30 450,-10 430,-10"/>
<text text-anchor="start" x="453.67" y="-15.4" font-family="Times-12" font-size="14.00"> &#160;Providers</text>
<polygon fill="#fb8072" stroke="transparent" points="526,-10 526,-30 546,-30 546,-10 526,-10"/>
<text text-anchor="start" x="549.73" y="-15.4" font-family="Times-12" font-size="14.00"> &#160;Exports</text>
<g id="clust1" class="cluster">
<title>cluster_ExpensesModule</title>
<polygon fill="none" stroke="black" stroke-dasharray="1,5" points="8,-70 8,-195 728,-195 728,-70 8,-70"/>
</g>
<g id="clust6" class="cluster">
<title>cluster_ExpensesModule_providers</title>
<polygon fill="none" stroke="black" points="552,-78 552,-130 720,-130 720,-78 552,-78"/>
</g>
<g id="clust3" class="cluster">
<title>cluster_ExpensesModule_imports</title>
<polygon fill="none" stroke="black" points="16,-78 16,-130 544,-130 544,-78 16,-78"/>
</g>
<!-- ExpenseCategoriesModule -->
<g id="node1" class="node">
<title>ExpenseCategoriesModule</title>
<polygon fill="#8dd3c7" stroke="black" points="536.34,-122 533.34,-126 512.34,-126 509.34,-122 369.66,-122 369.66,-86 536.34,-86 536.34,-122"/>
<text text-anchor="middle" x="453" y="-99.8" font-family="Times,serif" font-size="14.00">ExpenseCategoriesModule</text>
</g>
<!-- ExpensesModule -->
<g id="node5" class="node">
<title>ExpensesModule</title>
<polygon fill="#8dd3c7" stroke="black" points="357.42,-187 354.42,-191 333.42,-191 330.42,-187 244.58,-187 244.58,-151 357.42,-151 357.42,-187"/>
<text text-anchor="middle" x="301" y="-164.8" font-family="Times,serif" font-size="14.00">ExpensesModule</text>
</g>
<!-- ExpenseCategoriesModule&#45;&gt;ExpensesModule -->
<g id="edge1" class="edge">
<title>ExpenseCategoriesModule&#45;&gt;ExpensesModule</title>
<path fill="none" stroke="black" d="M453,-122.02C453,-139.37 453,-163 453,-163 453,-163 367.6,-163 367.6,-163"/>
<polygon fill="black" stroke="black" points="367.6,-159.5 357.6,-163 367.6,-166.5 367.6,-159.5"/>
</g>
<!-- GroupsModule -->
<g id="node2" class="node">
<title>GroupsModule</title>
<polygon fill="#8dd3c7" stroke="black" points="351.26,-122 348.26,-126 327.26,-126 324.26,-122 250.74,-122 250.74,-86 351.26,-86 351.26,-122"/>
<text text-anchor="middle" x="301" y="-99.8" font-family="Times,serif" font-size="14.00">GroupsModule</text>
</g>
<!-- GroupsModule&#45;&gt;ExpensesModule -->
<g id="edge2" class="edge">
<title>GroupsModule&#45;&gt;ExpensesModule</title>
<path fill="none" stroke="black" d="M301,-122.11C301,-122.11 301,-140.99 301,-140.99"/>
<polygon fill="black" stroke="black" points="297.5,-140.99 301,-150.99 304.5,-140.99 297.5,-140.99"/>
</g>
<!-- PrismaModule -->
<g id="node3" class="node">
<title>PrismaModule</title>
<polygon fill="#8dd3c7" stroke="black" points="232.43,-122 229.43,-126 208.43,-126 205.43,-122 133.57,-122 133.57,-86 232.43,-86 232.43,-122"/>
<text text-anchor="middle" x="183" y="-99.8" font-family="Times,serif" font-size="14.00">PrismaModule</text>
</g>
<!-- PrismaModule&#45;&gt;ExpensesModule -->
<g id="edge3" class="edge">
<title>PrismaModule&#45;&gt;ExpensesModule</title>
<path fill="none" stroke="black" d="M183,-122.02C183,-139.37 183,-163 183,-163 183,-163 234.76,-163 234.76,-163"/>
<polygon fill="black" stroke="black" points="234.76,-166.5 244.76,-163 234.76,-159.5 234.76,-166.5"/>
</g>
<!-- UsersModule -->
<g id="node4" class="node">
<title>UsersModule</title>
<polygon fill="#8dd3c7" stroke="black" points="115.92,-122 112.92,-126 91.92,-126 88.92,-122 24.08,-122 24.08,-86 115.92,-86 115.92,-122"/>
<text text-anchor="middle" x="70" y="-99.8" font-family="Times,serif" font-size="14.00">UsersModule</text>
</g>
<!-- UsersModule&#45;&gt;ExpensesModule -->
<g id="edge4" class="edge">
<title>UsersModule&#45;&gt;ExpensesModule</title>
<path fill="none" stroke="black" d="M70,-122.28C70,-143.32 70,-175 70,-175 70,-175 234.79,-175 234.79,-175"/>
<polygon fill="black" stroke="black" points="234.79,-178.5 244.79,-175 234.79,-171.5 234.79,-178.5"/>
</g>
<!-- ExpensesService -->
<g id="node6" class="node">
<title>ExpensesService</title>
<ellipse fill="#fdb462" stroke="black" cx="636" cy="-104" rx="76.42" ry="18"/>
<text text-anchor="middle" x="636" y="-99.8" font-family="Times,serif" font-size="14.00">ExpensesService</text>
</g>
<!-- ExpensesService&#45;&gt;ExpensesModule -->
<g id="edge5" class="edge">
<title>ExpensesService&#45;&gt;ExpensesModule</title>
<path fill="none" stroke="black" d="M636,-122.28C636,-143.32 636,-175 636,-175 636,-175 367.45,-175 367.45,-175"/>
<polygon fill="black" stroke="black" points="367.45,-171.5 357.45,-175 367.45,-178.5 367.45,-171.5"/>
</g>
</g>
</svg>
