<?xml version="1.0" encoding="UTF-8" standalone="no"?>
<!DOCTYPE svg PUBLIC "-//W3C//DTD SVG 1.1//EN"
 "http://www.w3.org/Graphics/SVG/1.1/DTD/svg11.dtd">
<!-- Generated by graphviz version 2.47.0 (20210316.0004)
 -->
<!-- Title: dependencies Pages: 1 -->
<svg width="943pt" height="211pt"
 viewBox="0.00 0.00 943.00 211.00" xmlns="http://www.w3.org/2000/svg" xmlns:xlink="http://www.w3.org/1999/xlink">
<g id="graph0" class="graph" transform="scale(1 1) rotate(0) translate(4 207)">
<title>dependencies</title>
<polygon fill="white" stroke="transparent" points="-4,4 -4,-207 939,-207 939,4 -4,4"/>
<text text-anchor="start" x="446.51" y="-42.4" font-family="Times-12" font-weight="bold" font-size="14.00">Legend</text>
<polygon fill="#ffffb3" stroke="transparent" points="233.5,-10 233.5,-30 253.5,-30 253.5,-10 233.5,-10"/>
<text text-anchor="start" x="257.13" y="-15.4" font-family="Times-12" font-size="14.00"> &#160;Declarations</text>
<polygon fill="#8dd3c7" stroke="transparent" points="346.5,-10 346.5,-30 366.5,-30 366.5,-10 346.5,-10"/>
<text text-anchor="start" x="370.23" y="-15.4" font-family="Times-12" font-size="14.00"> &#160;Module</text>
<polygon fill="#80b1d3" stroke="transparent" points="432.5,-10 432.5,-30 452.5,-30 452.5,-10 432.5,-10"/>
<text text-anchor="start" x="456.28" y="-15.4" font-family="Times-12" font-size="14.00"> &#160;Bootstrap</text>
<polygon fill="#fdb462" stroke="transparent" points="529.5,-10 529.5,-30 549.5,-30 549.5,-10 529.5,-10"/>
<text text-anchor="start" x="553.17" y="-15.4" font-family="Times-12" font-size="14.00"> &#160;Providers</text>
<polygon fill="#fb8072" stroke="transparent" points="625.5,-10 625.5,-30 645.5,-30 645.5,-10 625.5,-10"/>
<text text-anchor="start" x="649.23" y="-15.4" font-family="Times-12" font-size="14.00"> &#160;Exports</text>
<g id="clust1" class="cluster">
<title>cluster_AppModule</title>
<polygon fill="none" stroke="black" stroke-dasharray="1,5" points="8,-70 8,-195 927,-195 927,-70 8,-70"/>
</g>
<g id="clust3" class="cluster">
<title>cluster_AppModule_imports</title>
<polygon fill="none" stroke="black" points="154,-78 154,-130 919,-130 919,-78 154,-78"/>
</g>
<g id="clust6" class="cluster">
<title>cluster_AppModule_providers</title>
<polygon fill="none" stroke="black" points="16,-78 16,-130 146,-130 146,-78 16,-78"/>
</g>
<!-- AuthModule -->
<g id="node1" class="node">
<title>AuthModule</title>
<polygon fill="#8dd3c7" stroke="black" points="910.55,-122 907.55,-126 886.55,-126 883.55,-122 823.45,-122 823.45,-86 910.55,-86 910.55,-122"/>
<text text-anchor="middle" x="867" y="-99.8" font-family="Times,serif" font-size="14.00">AuthModule</text>
</g>
<!-- AppModule -->
<g id="node7" class="node">
<title>AppModule</title>
<polygon fill="#8dd3c7" stroke="black" points="480.66,-187 477.66,-191 456.66,-191 453.66,-187 397.34,-187 397.34,-151 480.66,-151 480.66,-187"/>
<text text-anchor="middle" x="439" y="-164.8" font-family="Times,serif" font-size="14.00">AppModule</text>
</g>
<!-- AuthModule&#45;&gt;AppModule -->
<g id="edge1" class="edge">
<title>AuthModule&#45;&gt;AppModule</title>
<path fill="none" stroke="black" d="M867,-122.29C867,-144.21 867,-178 867,-178 867,-178 490.82,-178 490.82,-178"/>
<polygon fill="black" stroke="black" points="490.82,-174.5 480.82,-178 490.82,-181.5 490.82,-174.5"/>
</g>
<!-- ExpenseCategoriesModule -->
<g id="node2" class="node">
<title>ExpenseCategoriesModule</title>
<polygon fill="#8dd3c7" stroke="black" points="805.34,-122 802.34,-126 781.34,-126 778.34,-122 638.66,-122 638.66,-86 805.34,-86 805.34,-122"/>
<text text-anchor="middle" x="722" y="-99.8" font-family="Times,serif" font-size="14.00">ExpenseCategoriesModule</text>
</g>
<!-- ExpenseCategoriesModule&#45;&gt;AppModule -->
<g id="edge2" class="edge">
<title>ExpenseCategoriesModule&#45;&gt;AppModule</title>
<path fill="none" stroke="black" d="M722,-122.11C722,-141.34 722,-169 722,-169 722,-169 490.76,-169 490.76,-169"/>
<polygon fill="black" stroke="black" points="490.76,-165.5 480.76,-169 490.76,-172.5 490.76,-165.5"/>
</g>
<!-- ExpensesModule -->
<g id="node3" class="node">
<title>ExpensesModule</title>
<polygon fill="#8dd3c7" stroke="black" points="620.42,-122 617.42,-126 596.42,-126 593.42,-122 507.58,-122 507.58,-86 620.42,-86 620.42,-122"/>
<text text-anchor="middle" x="564" y="-99.8" font-family="Times,serif" font-size="14.00">ExpensesModule</text>
</g>
<!-- ExpensesModule&#45;&gt;AppModule -->
<g id="edge3" class="edge">
<title>ExpensesModule&#45;&gt;AppModule</title>
<path fill="none" stroke="black" d="M564,-122.03C564,-138.4 564,-160 564,-160 564,-160 490.97,-160 490.97,-160"/>
<polygon fill="black" stroke="black" points="490.97,-156.5 480.97,-160 490.97,-163.5 490.97,-156.5"/>
</g>
<!-- GroupsModule -->
<g id="node4" class="node">
<title>GroupsModule</title>
<polygon fill="#8dd3c7" stroke="black" points="489.26,-122 486.26,-126 465.26,-126 462.26,-122 388.74,-122 388.74,-86 489.26,-86 489.26,-122"/>
<text text-anchor="middle" x="439" y="-99.8" font-family="Times,serif" font-size="14.00">GroupsModule</text>
</g>
<!-- GroupsModule&#45;&gt;AppModule -->
<g id="edge4" class="edge">
<title>GroupsModule&#45;&gt;AppModule</title>
<path fill="none" stroke="black" d="M439,-122.11C439,-122.11 439,-140.99 439,-140.99"/>
<polygon fill="black" stroke="black" points="435.5,-140.99 439,-150.99 442.5,-140.99 435.5,-140.99"/>
</g>
<!-- PrismaModule -->
<g id="node5" class="node">
<title>PrismaModule</title>
<polygon fill="#8dd3c7" stroke="black" points="370.43,-122 367.43,-126 346.43,-126 343.43,-122 271.57,-122 271.57,-86 370.43,-86 370.43,-122"/>
<text text-anchor="middle" x="321" y="-99.8" font-family="Times,serif" font-size="14.00">PrismaModule</text>
</g>
<!-- PrismaModule&#45;&gt;AppModule -->
<g id="edge5" class="edge">
<title>PrismaModule&#45;&gt;AppModule</title>
<path fill="none" stroke="black" d="M321,-122.03C321,-138.4 321,-160 321,-160 321,-160 387.07,-160 387.07,-160"/>
<polygon fill="black" stroke="black" points="387.07,-163.5 397.07,-160 387.07,-156.5 387.07,-163.5"/>
</g>
<!-- UsersModule -->
<g id="node6" class="node">
<title>UsersModule</title>
<polygon fill="#8dd3c7" stroke="black" points="253.92,-122 250.92,-126 229.92,-126 226.92,-122 162.08,-122 162.08,-86 253.92,-86 253.92,-122"/>
<text text-anchor="middle" x="208" y="-99.8" font-family="Times,serif" font-size="14.00">UsersModule</text>
</g>
<!-- UsersModule&#45;&gt;AppModule -->
<g id="edge6" class="edge">
<title>UsersModule&#45;&gt;AppModule</title>
<path fill="none" stroke="black" d="M208,-122.11C208,-141.34 208,-169 208,-169 208,-169 387.17,-169 387.17,-169"/>
<polygon fill="black" stroke="black" points="387.17,-172.5 397.17,-169 387.17,-165.5 387.17,-172.5"/>
</g>
<!-- AppService -->
<g id="node8" class="node">
<title>AppService</title>
<ellipse fill="#fdb462" stroke="black" cx="81" cy="-104" rx="56.74" ry="18"/>
<text text-anchor="middle" x="81" y="-99.8" font-family="Times,serif" font-size="14.00">AppService</text>
</g>
<!-- AppService&#45;&gt;AppModule -->
<g id="edge7" class="edge">
<title>AppService&#45;&gt;AppModule</title>
<path fill="none" stroke="black" d="M81,-122.29C81,-144.21 81,-178 81,-178 81,-178 387.23,-178 387.23,-178"/>
<polygon fill="black" stroke="black" points="387.23,-181.5 397.23,-178 387.23,-174.5 387.23,-181.5"/>
</g>
</g>
</svg>
