<?xml version="1.0" encoding="UTF-8" standalone="no"?>
<!DOCTYPE svg PUBLIC "-//W3C//DTD SVG 1.1//EN"
 "http://www.w3.org/Graphics/SVG/1.1/DTD/svg11.dtd">
<!-- Generated by graphviz version 2.47.0 (20210316.0004)
 -->
<!-- Title: dependencies Pages: 1 -->
<svg width="504pt" height="284pt"
 viewBox="0.00 0.00 504.00 284.00" xmlns="http://www.w3.org/2000/svg" xmlns:xlink="http://www.w3.org/1999/xlink">
<g id="graph0" class="graph" transform="scale(1 1) rotate(0) translate(4 280)">
<title>dependencies</title>
<polygon fill="white" stroke="transparent" points="-4,4 -4,-280 500,-280 500,4 -4,4"/>
<text text-anchor="start" x="227.01" y="-42.4" font-family="Times-12" font-weight="bold" font-size="14.00">Legend</text>
<polygon fill="#ffffb3" stroke="transparent" points="14,-10 14,-30 34,-30 34,-10 14,-10"/>
<text text-anchor="start" x="37.63" y="-15.4" font-family="Times-12" font-size="14.00"> &#160;Declarations</text>
<polygon fill="#8dd3c7" stroke="transparent" points="127,-10 127,-30 147,-30 147,-10 127,-10"/>
<text text-anchor="start" x="150.73" y="-15.4" font-family="Times-12" font-size="14.00"> &#160;Module</text>
<polygon fill="#80b1d3" stroke="transparent" points="213,-10 213,-30 233,-30 233,-10 213,-10"/>
<text text-anchor="start" x="236.78" y="-15.4" font-family="Times-12" font-size="14.00"> &#160;Bootstrap</text>
<polygon fill="#fdb462" stroke="transparent" points="310,-10 310,-30 330,-30 330,-10 310,-10"/>
<text text-anchor="start" x="333.67" y="-15.4" font-family="Times-12" font-size="14.00"> &#160;Providers</text>
<polygon fill="#fb8072" stroke="transparent" points="406,-10 406,-30 426,-30 426,-10 406,-10"/>
<text text-anchor="start" x="429.73" y="-15.4" font-family="Times-12" font-size="14.00"> &#160;Exports</text>
<g id="clust1" class="cluster">
<title>cluster_GroupsModule</title>
<polygon fill="none" stroke="black" stroke-dasharray="1,5" points="48,-70 48,-268 448,-268 448,-70 48,-70"/>
</g>
<g id="clust4" class="cluster">
<title>cluster_GroupsModule_exports</title>
<polygon fill="none" stroke="black" points="211,-208 211,-260 329,-260 329,-208 211,-208"/>
</g>
<g id="clust3" class="cluster">
<title>cluster_GroupsModule_imports</title>
<polygon fill="none" stroke="black" points="216,-78 216,-130 440,-130 440,-78 216,-78"/>
</g>
<g id="clust6" class="cluster">
<title>cluster_GroupsModule_providers</title>
<polygon fill="none" stroke="black" points="56,-78 56,-130 208,-130 208,-78 56,-78"/>
</g>
<!-- PrismaModule -->
<g id="node1" class="node">
<title>PrismaModule</title>
<polygon fill="#8dd3c7" stroke="black" points="432.43,-122 429.43,-126 408.43,-126 405.43,-122 333.57,-122 333.57,-86 432.43,-86 432.43,-122"/>
<text text-anchor="middle" x="383" y="-99.8" font-family="Times,serif" font-size="14.00">PrismaModule</text>
</g>
<!-- GroupsModule -->
<g id="node3" class="node">
<title>GroupsModule</title>
<polygon fill="#8dd3c7" stroke="black" points="320.26,-187 317.26,-191 296.26,-191 293.26,-187 219.74,-187 219.74,-151 320.26,-151 320.26,-187"/>
<text text-anchor="middle" x="270" y="-164.8" font-family="Times,serif" font-size="14.00">GroupsModule</text>
</g>
<!-- PrismaModule&#45;&gt;GroupsModule -->
<g id="edge1" class="edge">
<title>PrismaModule&#45;&gt;GroupsModule</title>
<path fill="none" stroke="black" d="M383,-122.11C383,-141.34 383,-169 383,-169 383,-169 330.55,-169 330.55,-169"/>
<polygon fill="black" stroke="black" points="330.55,-165.5 320.55,-169 330.55,-172.5 330.55,-165.5"/>
</g>
<!-- UsersModule -->
<g id="node2" class="node">
<title>UsersModule</title>
<polygon fill="#8dd3c7" stroke="black" points="315.92,-122 312.92,-126 291.92,-126 288.92,-122 224.08,-122 224.08,-86 315.92,-86 315.92,-122"/>
<text text-anchor="middle" x="270" y="-99.8" font-family="Times,serif" font-size="14.00">UsersModule</text>
</g>
<!-- UsersModule&#45;&gt;GroupsModule -->
<g id="edge2" class="edge">
<title>UsersModule&#45;&gt;GroupsModule</title>
<path fill="none" stroke="black" d="M270,-122.11C270,-122.11 270,-140.99 270,-140.99"/>
<polygon fill="black" stroke="black" points="266.5,-140.99 270,-150.99 273.5,-140.99 266.5,-140.99"/>
</g>
<!-- GroupsService  -->
<g id="node4" class="node">
<title>GroupsService </title>
<polygon fill="#fb8072" stroke="black" points="321.19,-252 218.81,-252 218.81,-216 321.19,-216 321.19,-252"/>
<text text-anchor="middle" x="270" y="-229.8" font-family="Times,serif" font-size="14.00">GroupsService </text>
</g>
<!-- GroupsModule&#45;&gt;GroupsService  -->
<g id="edge3" class="edge">
<title>GroupsModule&#45;&gt;GroupsService </title>
<path fill="none" stroke="black" stroke-dasharray="5,2" d="M270,-187.11C270,-187.11 270,-205.99 270,-205.99"/>
<polygon fill="black" stroke="black" points="266.5,-205.99 270,-215.99 273.5,-205.99 266.5,-205.99"/>
</g>
<!-- GroupsService -->
<g id="node5" class="node">
<title>GroupsService</title>
<ellipse fill="#fdb462" stroke="black" cx="132" cy="-104" rx="68.34" ry="18"/>
<text text-anchor="middle" x="132" y="-99.8" font-family="Times,serif" font-size="14.00">GroupsService</text>
</g>
<!-- GroupsService&#45;&gt;GroupsModule -->
<g id="edge4" class="edge">
<title>GroupsService&#45;&gt;GroupsModule</title>
<path fill="none" stroke="black" d="M132,-122.11C132,-141.34 132,-169 132,-169 132,-169 209.4,-169 209.4,-169"/>
<polygon fill="black" stroke="black" points="209.4,-172.5 219.4,-169 209.4,-165.5 209.4,-172.5"/>
</g>
</g>
</svg>
