<?xml version="1.0" encoding="UTF-8" standalone="no"?>
<!DOCTYPE svg PUBLIC "-//W3C//DTD SVG 1.1//EN"
 "http://www.w3.org/Graphics/SVG/1.1/DTD/svg11.dtd">
<!-- Generated by graphviz version 2.47.0 (20210316.0004)
 -->
<!-- Title: dependencies Pages: 1 -->
<svg width="504pt" height="284pt"
 viewBox="0.00 0.00 504.00 284.00" xmlns="http://www.w3.org/2000/svg" xmlns:xlink="http://www.w3.org/1999/xlink">
<g id="graph0" class="graph" transform="scale(1 1) rotate(0) translate(4 280)">
<title>dependencies</title>
<polygon fill="white" stroke="transparent" points="-4,4 -4,-280 500,-280 500,4 -4,4"/>
<text text-anchor="start" x="227.01" y="-42.4" font-family="Times-12" font-weight="bold" font-size="14.00">Legend</text>
<polygon fill="#ffffb3" stroke="transparent" points="14,-10 14,-30 34,-30 34,-10 14,-10"/>
<text text-anchor="start" x="37.63" y="-15.4" font-family="Times-12" font-size="14.00"> &#160;Declarations</text>
<polygon fill="#8dd3c7" stroke="transparent" points="127,-10 127,-30 147,-30 147,-10 127,-10"/>
<text text-anchor="start" x="150.73" y="-15.4" font-family="Times-12" font-size="14.00"> &#160;Module</text>
<polygon fill="#80b1d3" stroke="transparent" points="213,-10 213,-30 233,-30 233,-10 213,-10"/>
<text text-anchor="start" x="236.78" y="-15.4" font-family="Times-12" font-size="14.00"> &#160;Bootstrap</text>
<polygon fill="#fdb462" stroke="transparent" points="310,-10 310,-30 330,-30 330,-10 310,-10"/>
<text text-anchor="start" x="333.67" y="-15.4" font-family="Times-12" font-size="14.00"> &#160;Providers</text>
<polygon fill="#fb8072" stroke="transparent" points="406,-10 406,-30 426,-30 426,-10 406,-10"/>
<text text-anchor="start" x="429.73" y="-15.4" font-family="Times-12" font-size="14.00"> &#160;Exports</text>
<g id="clust1" class="cluster">
<title>cluster_ExpenseCategoriesModule</title>
<polygon fill="none" stroke="black" stroke-dasharray="1,5" points="57,-70 57,-268 439,-268 439,-70 57,-70"/>
</g>
<g id="clust3" class="cluster">
<title>cluster_ExpenseCategoriesModule_imports</title>
<polygon fill="none" stroke="black" points="317,-78 317,-130 431,-130 431,-78 317,-78"/>
</g>
<g id="clust4" class="cluster">
<title>cluster_ExpenseCategoriesModule_exports</title>
<polygon fill="none" stroke="black" points="171,-208 171,-260 355,-260 355,-208 171,-208"/>
</g>
<g id="clust6" class="cluster">
<title>cluster_ExpenseCategoriesModule_providers</title>
<polygon fill="none" stroke="black" points="65,-78 65,-130 309,-130 309,-78 65,-78"/>
</g>
<!-- PrismaModule -->
<g id="node1" class="node">
<title>PrismaModule</title>
<polygon fill="#8dd3c7" stroke="black" points="423.43,-122 420.43,-126 399.43,-126 396.43,-122 324.57,-122 324.57,-86 423.43,-86 423.43,-122"/>
<text text-anchor="middle" x="374" y="-99.8" font-family="Times,serif" font-size="14.00">PrismaModule</text>
</g>
<!-- ExpenseCategoriesModule -->
<g id="node2" class="node">
<title>ExpenseCategoriesModule</title>
<polygon fill="#8dd3c7" stroke="black" points="346.34,-187 343.34,-191 322.34,-191 319.34,-187 179.66,-187 179.66,-151 346.34,-151 346.34,-187"/>
<text text-anchor="middle" x="263" y="-164.8" font-family="Times,serif" font-size="14.00">ExpenseCategoriesModule</text>
</g>
<!-- PrismaModule&#45;&gt;ExpenseCategoriesModule -->
<g id="edge1" class="edge">
<title>PrismaModule&#45;&gt;ExpenseCategoriesModule</title>
<path fill="none" stroke="black" d="M335.6,-122.11C335.6,-122.11 335.6,-140.99 335.6,-140.99"/>
<polygon fill="black" stroke="black" points="332.1,-140.99 335.6,-150.99 339.1,-140.99 332.1,-140.99"/>
</g>
<!-- ExpenseCategoriesService  -->
<g id="node3" class="node">
<title>ExpenseCategoriesService </title>
<polygon fill="#fb8072" stroke="black" points="347.27,-252 178.73,-252 178.73,-216 347.27,-216 347.27,-252"/>
<text text-anchor="middle" x="263" y="-229.8" font-family="Times,serif" font-size="14.00">ExpenseCategoriesService </text>
</g>
<!-- ExpenseCategoriesModule&#45;&gt;ExpenseCategoriesService  -->
<g id="edge2" class="edge">
<title>ExpenseCategoriesModule&#45;&gt;ExpenseCategoriesService </title>
<path fill="none" stroke="black" stroke-dasharray="5,2" d="M263,-187.11C263,-187.11 263,-205.99 263,-205.99"/>
<polygon fill="black" stroke="black" points="259.5,-205.99 263,-215.99 266.5,-205.99 259.5,-205.99"/>
</g>
<!-- ExpenseCategoriesService -->
<g id="node4" class="node">
<title>ExpenseCategoriesService</title>
<ellipse fill="#fdb462" stroke="black" cx="187" cy="-104" rx="114" ry="18"/>
<text text-anchor="middle" x="187" y="-99.8" font-family="Times,serif" font-size="14.00">ExpenseCategoriesService</text>
</g>
<!-- ExpenseCategoriesService&#45;&gt;ExpenseCategoriesModule -->
<g id="edge3" class="edge">
<title>ExpenseCategoriesService&#45;&gt;ExpenseCategoriesModule</title>
<path fill="none" stroke="black" d="M240.29,-120.07C240.29,-120.07 240.29,-140.82 240.29,-140.82"/>
<polygon fill="black" stroke="black" points="236.79,-140.82 240.29,-150.82 243.79,-140.82 236.79,-140.82"/>
</g>
</g>
</svg>
